# xmcd CD database file
#
# Track frame offsets:
#	150
#	17319
#	42436
#	62517
#	78888
#	96624
#	116941
#	135269
#	150566
#	173090
#	195560
#	215408
#
# Disc length: 3206 seconds
#
# Revision: 0
# Processed by: cddbd v1.5.2PL0 Copyright (c) Steve Scherf et al.
# Submitted via: CDex 1.51
#
DISCID=960c840c
DTITLE=The Surgens - Songs of sadness misery and abuse
DYEAR=2006
DGENRE=Blues
TTITLE0=Twisted brain
TTITLE1=Mean cheatin´man
TTITLE2=John Hardy
TTITLE3=Goodbye nadine
TTITLE4=The wolfman
TTITLE5=Hank and the blue legged dog
TTITLE6=Death of a politician
TTITLE7=The devil and the black cat skinner
TTITLE8=Rocky and sad
TTITLE9=The happening
TTITLE10=Big fat calf
TTITLE11=Drunken angel
EXTD=YEAR: 2006
EXTT0=
EXTT1=
EXTT2=
EXTT3=
EXTT4=
EXTT5=
EXTT6=
EXTT7=
EXTT8=
EXTT9=
EXTT10=
EXTT11=
PLAYORDER=
